<svg xmlns="http://www.w3.org/2000/svg" xmlns:xlink="http://www.w3.org/1999/xlink" viewBox="0 0 2000 650" width="2000" height="650" preserveAspectRatio="xMidYMid meet" style="width: 100%; height: 100%; transform: translate3d(0px, 0px, 0px); content-visibility: visible;"><defs><clipPath id="__lottie_element_2"><rect width="2000" height="650" x="0" y="0"></rect></clipPath></defs><g clip-path="url(#__lottie_element_2)"><g id="733" style="display: block;" transform="matrix(3.700000047683716,0,0,3.700000047683716,970,399)" opacity="1"><g opacity="1" transform="matrix(1,0,0,1,0,0)"><path stroke-linecap="round" stroke-linejoin="round" fill-opacity="0" stroke="rgb(214,255,0)" stroke-opacity="1" stroke-width="4" d=" M178,-66.25 C178,-66.25 175.75,-61 175.75,-59.75"></path></g></g><g id="734" style="display: block;" transform="matrix(3.700000047683716,0,0,3.700000047683716,970,399)" opacity="1"><g opacity="1" transform="matrix(1,0,0,1,0.06400000303983688,0.061000000685453415)"><path stroke-linecap="round" stroke-linejoin="round" fill-opacity="0" stroke="rgb(214,255,0)" stroke-opacity="1" stroke-width="4" d=" M211.0679931640625,-42.30400085449219 C215.8179931640625,-44.80400085449219 227.5030059814453,-53.16899871826172 226.5,-59.5 C225.08700561523438,-68.41999816894531 199,-35.5 214.75,-34.25 C230.5,-33 244.5,-56 244.5,-56 C244.5,-56 245.25,-64.25 245.25,-64.25 C245.25,-64.25 246.01699829101562,-40.19599914550781 257.25,-39.25 C252.09800720214844,-41.277000427246094 244.39199829101562,-47.81800079345703 252.14199829101562,-57.06800079345703 C259.8919982910156,-66.31800079345703 262.75,-68.75 262.75,-68.75 C262.75,-68.75 234.5,-39.75 232,-21.5"></path></g></g><g id="735" style="display: block;" transform="matrix(3.700000047683716,0,0,3.700000047683716,970,399)" opacity="1"><g opacity="1" transform="matrix(1,0,0,1,0,0)"><path stroke-linecap="round" stroke-linejoin="round" fill-opacity="0" stroke="rgb(214,255,0)" stroke-opacity="1" stroke-width="4" d=" M173,-50.25 C173,-50.25 157.5,-16.75 178.25,-31.25 C199,-45.75 200.43899536132812,-49.3849983215332 200.43899536132812,-49.3849983215332 C200.43899536132812,-49.3849983215332 212.5,-90.75 218,-96.5 C223.5,-102.25 202.7030029296875,-79.59500122070312 193.75,-10.75 C193.5,-11 202.8780059814453,-65.40499877929688 206.1280059814453,-67.65499877929688 C209.3780059814453,-69.90499877929688 188.25,-61.5 188.25,-61.5 C188.25,-61.5 205.5,-72.5 222.5,-70.25"></path></g></g><g id="736" style="display: block;" transform="matrix(3.700000047683716,0,0,3.700000047683716,970,399)" opacity="1"><g opacity="1" transform="matrix(1,0,0,1,0,0)"><path stroke-linecap="butt" stroke-linejoin="round" fill-opacity="0" stroke="rgb(214,255,0)" stroke-opacity="1" stroke-width="4" d=" M125.89900207519531,-70.30400085449219 C120.14900207519531,-52.55400085449219 103,-5 103,-5 C103,-5 114.25,-60.5 119.5,-72 C124.75,-83.5 124.75,-81.25 127.75,-59.25 C130.75,-37.25 138,8.5 145.75,-19 C153.5,-46.5 164.5,-87 170.5,-100.25"></path></g></g><g id="737" style="display: block;" transform="matrix(3.700000047683716,0,0,3.700000047683716,970,399)" opacity="1"><g opacity="1" transform="matrix(1,0,0,1,0,0)"><path stroke-linecap="round" stroke-linejoin="round" fill-opacity="0" stroke="rgb(214,255,0)" stroke-opacity="1" stroke-width="4" d=" M-61,-44.5 C-59.8120002746582,-45.78499984741211 -87.25,-18 -87.5,36.75 C-87.5,51 -80.5,43.25 -77.25,30.25 C-74,17.25 -81.25,10 -89.5,8.5 C-97.75,7 -64.75,-0.5 -56.25,-13 C-47.75,-25.5 -51.5,-29.5 -47,-33.75 C-42.5,-38 -55.75,-29 -57.25,5.5 C-52.25,-9 -45.5,-26.75 -37.75,-23.75 C-30,-20.75 -24.25,-23 -21.75,-26 C-19.25,-29 -40,-1 -27.5,-0.75 C-15,-0.5 -13.25,-27.75 -15.75,-32.5 C-18.25,-37.25 -16.5,-8 5.25,-22 C8.75,-23.5 12.75,-42.25 15.5,-42.75 C18.25,-43.25 4.25,-27.25 4.75,-3.5 C6,0 8.25,-5 12.75,-15.5 C17.25,-26 25,-37.75 24.5,-29 C24,-20.25 23.5,-8.25 29.25,-15.75 C35,-23.25 43,-36.25 44.25,-28 C45.5,-19.75 48.75,-8.25 66.25,-30.5"></path></g></g><g id="738" style="display: block;" transform="matrix(3.700000047683716,0,0,3.700000047683716,970,399)" opacity="1"><g opacity="1" transform="matrix(1,0,0,1,0,0)"><path stroke-linecap="round" stroke-linejoin="round" fill-opacity="0" stroke="rgb(214,255,0)" stroke-opacity="1" stroke-width="4" d=" M-208,-1.5 C-208,-1.5 -228,24 -214.5,24.5 C-201,25 -203.5,-6.5 -204.5,-7.5 C-205.5,-8.5 -201,27 -177.5,-5 C-182,15 -185,34.5 -170,15.5 C-155,-3.5 -161.5,-27.5 -165.5,-4 C-169.5,19.5 -151,10 -141.5,4.5 C-132,-1 -127.5,-18.5 -134,-12 C-140.5,-5.5 -157.5,26.5 -139,16 C-120.5,5.5 -112.5,-6 -112.5,-6"></path></g></g><g id="739" style="display: block;" transform="matrix(3.700000047683716,0,0,3.700000047683716,970,399)" opacity="1"><g opacity="1" transform="matrix(1,0,0,1,0,0)"><path stroke-linecap="round" stroke-linejoin="round" fill-opacity="0" stroke="rgb(214,255,0)" stroke-opacity="1" stroke-width="4" d=" M-224,-22 C-224,-22 -220,-33 -220,-33 C-220,-33 -236.60000610351562,10.23799991607666 -245.03799438476562,45.49100112915039 C-246.20199584960938,50.358001708984375 -247.21200561523438,55.071998596191406 -248,59.5 C-245.5,51.5 -248.1009979248047,46.56800079345703 -248.1009979248047,46.56800079345703 C-248.1009979248047,46.56800079345703 -259.5,50.75 -259.5,50.75 C-259.5,50.75 -227,37.5 -209.5,39"></path></g></g></g></svg>